<svg preserveAspectRatio="none" overflow="visible" style="display: block;" width="32" height="32" viewBox="0 0 32 32" fill="none" xmlns="http://www.w3.org/2000/svg">
<g id="Frame">
<path id="Vector" d="M24 6.66667C24.7072 6.66667 25.3855 6.94762 25.8856 7.44771C26.3857 7.94781 26.6667 8.62609 26.6667 9.33333V20.7013C26.6665 21.1166 26.7633 21.5261 26.9493 21.8973L28.3733 24.7333C28.4761 24.9373 28.5248 25.1643 28.5147 25.3925C28.5045 25.6207 28.436 25.8424 28.3155 26.0365C28.195 26.2306 28.0267 26.3905 27.8267 26.5008C27.6267 26.6111 27.4017 26.6683 27.1733 26.6667H4.82667C4.59825 26.6683 4.37326 26.6111 4.17326 26.5008C3.97326 26.3905 3.80496 26.2306 3.6845 26.0365C3.56404 25.8424 3.49546 25.6207 3.48533 25.3925C3.47521 25.1643 3.52387 24.9373 3.62667 24.7333L5.05067 21.8973C5.23672 21.5261 5.33351 21.1166 5.33333 20.7013V9.33333C5.33333 8.62609 5.61429 7.94781 6.11438 7.44771C6.61448 6.94762 7.29276 6.66667 8 6.66667H24Z" stroke="white" stroke-width="2" stroke-linecap="round" stroke-linejoin="round"/>
<path id="Vector_2" d="M26.7387 21.316H5.26133" stroke="white" stroke-width="2" stroke-linecap="round" stroke-linejoin="round"/>
</g>
</svg>
